{
	"asset":{
		"generator":"Khronos glTF Blender I/O v3.6.28",
		"version":"2.0"
	},
	"scene":0,
	"scenes":[
		{
			"name":"Scene",
			"nodes":[
				0,
				1,
				2,
				3,
				4,
				5,
				6,
				7,
				8,
				9,
				10,
				11
			]
		}
	],
	"nodes":[
		{
			"mesh":0,
			"name":"Model"
		},
		{
			"mesh":1,
			"name":"Tail",
			"rotation":[
				0.14362642168998718,
				0.008058375678956509,
				0.012060625478625298,
				0.9895256757736206
			],
			"scale":[
				1.921561598777771,
				1.921561598777771,
				1.921561598777771
			],
			"translation":[
				0.013194732367992401,
				2.649275541305542,
				-0.3900594115257263
			]
		},
		{
			"mesh":2,
			"name":"Scarf",
			"rotation":[
				0.054102979600429535,
				-0.005732922814786434,
				-0.001978582236915827,
				0.9985169768333435
			],
			"scale":[
				0.551357626914978,
				0.2069775015115738,
				0.551357626914978
			],
			"translation":[
				-0.005271265283226967,
				4.130679607391357,
				0.12211019545793533
			]
		},
		{
			"mesh":3,
			"name":"Goggles",
			"rotation":[
				-0.13802602887153625,
				-0.09737575799226761,
				0.13004374504089355,
				0.9770135283470154
			],
			"scale":[
				0.20699119567871094,
				0.2069912552833557,
				0.03181558474898338
			],
			"translation":[
				0.006565302610397339,
				5.257583141326904,
				0.4338635802268982
			]
		},
		{
			"mesh":4,
			"name":"Goggles Buckle",
			"rotation":[
				0.04213603585958481,
				0,
				0,
				0.9991119503974915
			],
			"scale":[
				0.11341730505228043,
				0.11341733485460281,
				0.036274198442697525
			],
			"translation":[
				0.0005083181313239038,
				4.9960808753967285,
				-0.808258593082428
			]
		},
		{
			"mesh":5,
			"name":"Hair Front",
			"rotation":[
				-0.115470290184021,
				-0.5124093294143677,
				0.2286911904811859,
				0.8196364045143127
			],
			"scale":[
				0.06530556827783585,
				0.06530559062957764,
				0.06530557572841644
			],
			"translation":[
				0.02538466453552246,
				4.7885308265686035,
				0.6995123624801636
			]
		},
		{
			"mesh":6,
			"name":"Left Cat Ear",
			"rotation":[
				-0.024446072056889534,
				0.1499607414007187,
				0.15902464091777802,
				0.9755128622055054
			],
			"scale":[
				0.29685166478157043,
				0.29685163497924805,
				0.08342434465885162
			],
			"translation":[
				0.40551573038101196,
				5.755175590515137,
				0.377786248922348
			]
		},
		{
			"mesh":7,
			"name":"Lens Left",
			"rotation":[
				-0.1380259096622467,
				-0.09737578779459,
				0.13004373013973236,
				0.9770135283470154
			],
			"scale":[
				0.20699119567871094,
				0.20699122548103333,
				0.03181558474898338
			],
			"translation":[
				0.32823339104652405,
				5.330954551696777,
				0.8468630313873291
			]
		},
		{
			"mesh":8,
			"name":"Lense Right",
			"rotation":[
				-0.1380259096622467,
				-0.09737578779459,
				0.13004373013973236,
				0.9770135283470154
			],
			"scale":[
				0.20699119567871094,
				0.20699122548103333,
				0.03181558474898338
			],
			"translation":[
				-0.31510278582572937,
				5.330954551696777,
				0.8468630313873291
			]
		},
		{
			"mesh":9,
			"name":"Pilot Hat",
			"rotation":[
				-0.11408860981464386,
				0,
				0,
				0.9934706091880798
			],
			"scale":[
				0.17044764757156372,
				0.1704476922750473,
				0.17044764757156372
			],
			"translation":[
				0.006565297022461891,
				5.379936218261719,
				-0.055149145424366
			]
		},
		{
			"mesh":10,
			"name":"Ponytail",
			"rotation":[
				0.19744376838207245,
				0,
				0,
				0.9803141951560974
			],
			"scale":[
				0.15009862184524536,
				0.1588580310344696,
				0.158858060836792
			],
			"translation":[
				0.05182618647813797,
				4.258338451385498,
				-0.3779038190841675
			]
		},
		{
			"mesh":11,
			"name":"Right Cat Ear",
			"rotation":[
				-0.024446072056889534,
				0.1499607414007187,
				0.15902464091777802,
				0.9755128622055054
			],
			"scale":[
				0.29685166478157043,
				0.29685163497924805,
				0.08342434465885162
			],
			"translation":[
				-0.4055156707763672,
				5.755175590515137,
				0.377786248922348
			]
		}
	],
	"animations":[
		{
			"channels":[
				{
					"sampler":0,
					"target":{
						"node":5,
						"path":"translation"
					}
				},
				{
					"sampler":1,
					"target":{
						"node":5,
						"path":"rotation"
					}
				}
			],
			"name":"Walk",
			"samplers":[
				{
					"input":53,
					"interpolation":"LINEAR",
					"output":54
				},
				{
					"input":53,
					"interpolation":"LINEAR",
					"output":55
				}
			]
		}
	],
	"materials":[
		{
			"doubleSided":true,
			"name":"Material.003",
			"pbrMetallicRoughness":{
				"baseColorTexture":{
					"index":0
				},
				"metallicFactor":0,
				"roughnessFactor":0.5
			}
		},
		{
			"doubleSided":true,
			"name":"Material.005",
			"pbrMetallicRoughness":{
				"baseColorTexture":{
					"index":1
				},
				"metallicFactor":0,
				"roughnessFactor":0.5
			}
		},
		{
			"doubleSided":true,
			"name":"Material.009",
			"pbrMetallicRoughness":{
				"baseColorTexture":{
					"index":2
				},
				"metallicFactor":0,
				"roughnessFactor":0.5
			}
		},
		{
			"doubleSided":true,
			"name":"Material.006",
			"pbrMetallicRoughness":{
				"baseColorTexture":{
					"index":3
				},
				"metallicFactor":0,
				"roughnessFactor":0.5
			}
		},
		{
			"doubleSided":true,
			"name":"Material.007",
			"pbrMetallicRoughness":{
				"baseColorTexture":{
					"index":4
				},
				"metallicFactor":0,
				"roughnessFactor":0.5
			}
		},
		{
			"doubleSided":true,
			"name":"Material",
			"pbrMetallicRoughness":{
				"baseColorTexture":{
					"index":5
				},
				"metallicFactor":0,
				"roughnessFactor":0.5
			}
		},
		{
			"doubleSided":true,
			"name":"Material.001",
			"pbrMetallicRoughness":{
				"baseColorTexture":{
					"index":6
				},
				"metallicFactor":0,
				"roughnessFactor":0.5
			}
		},
		{
			"doubleSided":true,
			"name":"Material.011",
			"pbrMetallicRoughness":{
				"baseColorTexture":{
					"index":7
				},
				"metallicFactor":0,
				"roughnessFactor":0.5
			}
		},
		{
			"doubleSided":true,
			"name":"Material.008",
			"pbrMetallicRoughness":{
				"baseColorTexture":{
					"index":8
				},
				"metallicFactor":0,
				"roughnessFactor":0.5
			}
		},
		{
			"doubleSided":true,
			"name":"Material.004",
			"pbrMetallicRoughness":{
				"baseColorTexture":{
					"index":9
				},
				"metallicFactor":0,
				"roughnessFactor":0.5
			}
		},
		{
			"doubleSided":true,
			"name":"Material.002",
			"pbrMetallicRoughness":{
				"baseColorTexture":{
					"index":10
				},
				"metallicFactor":0,
				"roughnessFactor":0.5
			}
		}
	],
	"meshes":[
		{
			"name":"Cube.025",
			"primitives":[
				{
					"attributes":{
						"POSITION":0,
						"NORMAL":1,
						"TEXCOORD_0":2
					},
					"indices":3,
					"material":0
				},
				{
					"attributes":{
						"POSITION":4,
						"NORMAL":5,
						"TEXCOORD_0":6
					},
					"indices":7,
					"material":1
				}
			]
		},
		{
			"name":"Cube.030",
			"primitives":[
				{
					"attributes":{
						"POSITION":8,
						"NORMAL":9,
						"TEXCOORD_0":10
					},
					"indices":11,
					"material":2
				}
			]
		},
		{
			"name":"Cube.016",
			"primitives":[
				{
					"attributes":{
						"POSITION":12,
						"NORMAL":13,
						"TEXCOORD_0":14
					},
					"indices":15,
					"material":3
				}
			]
		},
		{
			"name":"Cube.023",
			"primitives":[
				{
					"attributes":{
						"POSITION":16,
						"NORMAL":17,
						"TEXCOORD_0":18
					},
					"indices":19,
					"material":4
				}
			]
		},
		{
			"name":"Cube.019",
			"primitives":[
				{
					"attributes":{
						"POSITION":20,
						"NORMAL":21,
						"TEXCOORD_0":22
					},
					"indices":23,
					"material":5
				}
			]
		},
		{
			"name":"Cube.028",
			"primitives":[
				{
					"attributes":{
						"POSITION":24,
						"NORMAL":25,
						"TEXCOORD_0":26
					},
					"indices":27,
					"material":6
				}
			]
		},
		{
			"name":"Cube.001",
			"primitives":[
				{
					"attributes":{
						"POSITION":28,
						"NORMAL":29,
						"TEXCOORD_0":30
					},
					"indices":31,
					"material":7
				}
			]
		},
		{
			"name":"Cube.012",
			"primitives":[
				{
					"attributes":{
						"POSITION":32,
						"NORMAL":33,
						"TEXCOORD_0":34
					},
					"indices":35,
					"material":8
				}
			]
		},
		{
			"name":"Cube.022",
			"primitives":[
				{
					"attributes":{
						"POSITION":36,
						"NORMAL":37,
						"TEXCOORD_0":38
					},
					"indices":39,
					"material":8
				}
			]
		},
		{
			"name":"Cube.021",
			"primitives":[
				{
					"attributes":{
						"COLOR_0":40,
						"POSITION":41,
						"NORMAL":42,
						"TEXCOORD_0":43
					},
					"indices":44,
					"material":9
				}
			]
		},
		{
			"name":"Cube.027",
			"primitives":[
				{
					"attributes":{
						"POSITION":45,
						"NORMAL":46,
						"TEXCOORD_0":47
					},
					"indices":48,
					"material":10
				}
			]
		},
		{
			"name":"Cube.046",
			"primitives":[
				{
					"attributes":{
						"POSITION":49,
						"NORMAL":50,
						"TEXCOORD_0":51
					},
					"indices":52,
					"material":7
				}
			]
		}
	],
	"textures":[
		{
			"sampler":0,
			"source":0
		},
		{
			"sampler":0,
			"source":0
		},
		{
			"sampler":0,
			"source":1
		},
		{
			"sampler":0,
			"source":2
		},
		{
			"sampler":0,
			"source":3
		},
		{
			"sampler":0,
			"source":4
		},
		{
			"sampler":0,
			"source":1
		},
		{
			"sampler":0,
			"source":5
		},
		{
			"sampler":0,
			"source":6
		},
		{
			"sampler":0,
			"source":7
		},
		{
			"sampler":0,
			"source":8
		}
	],
	"images":[
		{
			"mimeType":"image/png",
			"name":"PlayerModel",
			"uri":"PlayerModel.png"
		},
		{
			"mimeType":"image/png",
			"name":"FrontHair",
			"uri":"FrontHair.png"
		},
		{
			"mimeType":"image/png",
			"name":"Scarf",
			"uri":"Scarf.png"
		},
		{
			"mimeType":"image/png",
			"name":"Goggles",
			"uri":"Goggles.png"
		},
		{
			"mimeType":"image/png",
			"name":"GoggleBuckle",
			"uri":"GoggleBuckle.png"
		},
		{
			"mimeType":"image/png",
			"name":"Ears",
			"uri":"Ears.png"
		},
		{
			"mimeType":"image/png",
			"name":"Lens",
			"uri":"Lens.png"
		},
		{
			"mimeType":"image/png",
			"name":"PilotHat",
			"uri":"PilotHat.png"
		},
		{
			"mimeType":"image/png",
			"name":"Ponytail",
			"uri":"Ponytail.png"
		}
	],
	"accessors":[
		{
			"bufferView":0,
			"componentType":5126,
			"count":12803,
			"max":[
				2.939262866973877,
				5.620591163635254,
				0.7337052226066589
			],
			"min":[
				-2.939262866973877,
				0.0011522273998707533,
				-0.637606680393219
			],
			"type":"VEC3"
		},
		{
			"bufferView":1,
			"componentType":5126,
			"count":12803,
			"type":"VEC3"
		},
		{
			"bufferView":2,
			"componentType":5126,
			"count":12803,
			"type":"VEC2"
		},
		{
			"bufferView":3,
			"componentType":5123,
			"count":20691,
			"type":"SCALAR"
		},
		{
			"bufferView":4,
			"componentType":5126,
			"count":3992,
			"max":[
				0.6890800595283508,
				4.2469353675842285,
				0.6310082674026489
			],
			"min":[
				-0.6890800595283508,
				2.106775999069214,
				-0.40785712003707886
			],
			"type":"VEC3"
		},
		{
			"bufferView":5,
			"componentType":5126,
			"count":3992,
			"type":"VEC3"
		},
		{
			"bufferView":6,
			"componentType":5126,
			"count":3992,
			"type":"VEC2"
		},
		{
			"bufferView":7,
			"componentType":5123,
			"count":6840,
			"type":"SCALAR"
		},
		{
			"bufferView":8,
			"componentType":5126,
			"count":262,
			"max":[
				0.04868171364068985,
				0.032774195075035095,
				0.06091226637363434
			],
			"min":[
				-0.04868171364068985,
				-0.10099390894174576,
				-0.10353487730026245
			],
			"type":"VEC3"
		},
		{
			"bufferView":9,
			"componentType":5126,
			"count":262,
			"type":"VEC3"
		},
		{
			"bufferView":10,
			"componentType":5126,
			"count":262,
			"type":"VEC2"
		},
		{
			"bufferView":11,
			"componentType":5123,
			"count":396,
			"type":"SCALAR"
		},
		{
			"bufferView":12,
			"componentType":5126,
			"count":704,
			"max":[
				0.9578900337219238,
				1.1217612028121948,
				1.3590972423553467
			],
			"min":[
				-0.9109875559806824,
				-5.575010299682617,
				-0.7195058465003967
			],
			"type":"VEC3"
		},
		{
			"bufferView":13,
			"componentType":5126,
			"count":704,
			"type":"VEC3"
		},
		{
			"bufferView":14,
			"componentType":5126,
			"count":704,
			"type":"VEC2"
		},
		{
			"bufferView":15,
			"componentType":5123,
			"count":1056,
			"type":"SCALAR"
		},
		{
			"bufferView":16,
			"componentType":5126,
			"count":876,
			"max":[
				3.888787269592285,
				1.8207693099975586,
				15.84611701965332
			],
			"min":[
				-4.7582316398620605,
				-1.6613216400146484,
				-42.64361572265625
			],
			"type":"VEC3"
		},
		{
			"bufferView":17,
			"componentType":5126,
			"count":876,
			"type":"VEC3"
		},
		{
			"bufferView":18,
			"componentType":5126,
			"count":876,
			"type":"VEC2"
		},
		{
			"bufferView":19,
			"componentType":5123,
			"count":1368,
			"type":"SCALAR"
		},
		{
			"bufferView":20,
			"componentType":5126,
			"count":2040,
			"max":[
				1.25,
				1.25,
				1.25
			],
			"min":[
				-1.25,
				-1.25,
				-1.25
			],
			"type":"VEC3"
		},
		{
			"bufferView":21,
			"componentType":5126,
			"count":2040,
			"type":"VEC3"
		},
		{
			"bufferView":22,
			"componentType":5126,
			"count":2040,
			"type":"VEC2"
		},
		{
			"bufferView":23,
			"componentType":5123,
			"count":3024,
			"type":"SCALAR"
		},
		{
			"bufferView":24,
			"componentType":5126,
			"count":474,
			"max":[
				6.5245161056518555,
				8.050760269165039,
				10.503840446472168
			],
			"min":[
				-7.48861026763916,
				-8.8174409866333,
				-11.43972396850586
			],
			"type":"VEC3"
		},
		{
			"bufferView":25,
			"componentType":5126,
			"count":474,
			"type":"VEC3"
		},
		{
			"bufferView":26,
			"componentType":5126,
			"count":474,
			"type":"VEC2"
		},
		{
			"bufferView":27,
			"componentType":5123,
			"count":714,
			"type":"SCALAR"
		},
		{
			"bufferView":28,
			"componentType":5126,
			"count":112,
			"max":[
				0.6751387119293213,
				0.815104067325592,
				2.0008010864257812
			],
			"min":[
				-1.5821599960327148,
				-1.6299598217010498,
				-4.8278727531433105
			],
			"type":"VEC3"
		},
		{
			"bufferView":29,
			"componentType":5126,
			"count":112,
			"type":"VEC3"
		},
		{
			"bufferView":30,
			"componentType":5126,
			"count":112,
			"type":"VEC2"
		},
		{
			"bufferView":31,
			"componentType":5123,
			"count":168,
			"type":"SCALAR"
		},
		{
			"bufferView":32,
			"componentType":5126,
			"count":9,
			"max":[
				0.8981983661651611,
				0.6766506433486938,
				2.236417531967163
			],
			"min":[
				-0.7174520492553711,
				-0.7394654750823975,
				-2.8226780891418457
			],
			"type":"VEC3"
		},
		{
			"bufferView":33,
			"componentType":5126,
			"count":9,
			"type":"VEC3"
		},
		{
			"bufferView":34,
			"componentType":5126,
			"count":9,
			"type":"VEC2"
		},
		{
			"bufferView":35,
			"componentType":5123,
			"count":21,
			"type":"SCALAR"
		},
		{
			"bufferView":36,
			"componentType":5126,
			"count":9,
			"max":[
				0.8158990740776062,
				0.6789872646331787,
				1.6391277313232422e-07
			],
			"min":[
				-0.9961528778076172,
				-0.606825053691864,
				-2.5331974029541016e-07
			],
			"type":"VEC3"
		},
		{
			"bufferView":37,
			"componentType":5126,
			"count":9,
			"type":"VEC3"
		},
		{
			"bufferView":38,
			"componentType":5126,
			"count":9,
			"type":"VEC2"
		},
		{
			"bufferView":39,
			"componentType":5123,
			"count":21,
			"type":"SCALAR"
		},
		{
			"bufferView":40,
			"componentType":5123,
			"count":2812,
			"normalized":true,
			"type":"VEC4"
		},
		{
			"bufferView":41,
			"componentType":5126,
			"count":2812,
			"max":[
				4.692007064819336,
				2.7574591636657715,
				5.035800933837891
			],
			"min":[
				-4.692007064819336,
				-8.339314460754395,
				-4.756444931030273
			],
			"type":"VEC3"
		},
		{
			"bufferView":42,
			"componentType":5126,
			"count":2812,
			"type":"VEC3"
		},
		{
			"bufferView":43,
			"componentType":5126,
			"count":2812,
			"type":"VEC2"
		},
		{
			"bufferView":44,
			"componentType":5123,
			"count":4536,
			"type":"SCALAR"
		},
		{
			"bufferView":45,
			"componentType":5126,
			"count":776,
			"max":[
				4.004722595214844,
				1.278653621673584,
				1.4870288372039795
			],
			"min":[
				-4.26717472076416,
				-7.475467205047607,
				-1.195871353149414
			],
			"type":"VEC3"
		},
		{
			"bufferView":46,
			"componentType":5126,
			"count":776,
			"type":"VEC3"
		},
		{
			"bufferView":47,
			"componentType":5126,
			"count":776,
			"type":"VEC2"
		},
		{
			"bufferView":48,
			"componentType":5123,
			"count":1164,
			"type":"SCALAR"
		},
		{
			"bufferView":49,
			"componentType":5126,
			"count":112,
			"max":[
				1,
				0.874800443649292,
				1.2277427911758423
			],
			"min":[
				-1,
				-1.337465524673462,
				-3.2161269187927246
			],
			"type":"VEC3"
		},
		{
			"bufferView":50,
			"componentType":5126,
			"count":112,
			"type":"VEC3"
		},
		{
			"bufferView":51,
			"componentType":5126,
			"count":112,
			"type":"VEC2"
		},
		{
			"bufferView":52,
			"componentType":5123,
			"count":168,
			"type":"SCALAR"
		},
		{
			"bufferView":53,
			"componentType":5126,
			"count":31,
			"max":[
				1.25
			],
			"min":[
				0
			],
			"type":"SCALAR"
		},
		{
			"bufferView":54,
			"componentType":5126,
			"count":31,
			"type":"VEC3"
		},
		{
			"bufferView":55,
			"componentType":5126,
			"count":31,
			"type":"VEC4"
		}
	],
	"bufferViews":[
		{
			"buffer":0,
			"byteLength":153636,
			"byteOffset":0,
			"target":34962
		},
		{
			"buffer":0,
			"byteLength":153636,
			"byteOffset":153636,
			"target":34962
		},
		{
			"buffer":0,
			"byteLength":102424,
			"byteOffset":307272,
			"target":34962
		},
		{
			"buffer":0,
			"byteLength":41382,
			"byteOffset":409696,
			"target":34963
		},
		{
			"buffer":0,
			"byteLength":47904,
			"byteOffset":451080,
			"target":34962
		},
		{
			"buffer":0,
			"byteLength":47904,
			"byteOffset":498984,
			"target":34962
		},
		{
			"buffer":0,
			"byteLength":31936,
			"byteOffset":546888,
			"target":34962
		},
		{
			"buffer":0,
			"byteLength":13680,
			"byteOffset":578824,
			"target":34963
		},
		{
			"buffer":0,
			"byteLength":3144,
			"byteOffset":592504,
			"target":34962
		},
		{
			"buffer":0,
			"byteLength":3144,
			"byteOffset":595648,
			"target":34962
		},
		{
			"buffer":0,
			"byteLength":2096,
			"byteOffset":598792,
			"target":34962
		},
		{
			"buffer":0,
			"byteLength":792,
			"byteOffset":600888,
			"target":34963
		},
		{
			"buffer":0,
			"byteLength":8448,
			"byteOffset":601680,
			"target":34962
		},
		{
			"buffer":0,
			"byteLength":8448,
			"byteOffset":610128,
			"target":34962
		},
		{
			"buffer":0,
			"byteLength":5632,
			"byteOffset":618576,
			"target":34962
		},
		{
			"buffer":0,
			"byteLength":2112,
			"byteOffset":624208,
			"target":34963
		},
		{
			"buffer":0,
			"byteLength":10512,
			"byteOffset":626320,
			"target":34962
		},
		{
			"buffer":0,
			"byteLength":10512,
			"byteOffset":636832,
			"target":34962
		},
		{
			"buffer":0,
			"byteLength":7008,
			"byteOffset":647344,
			"target":34962
		},
		{
			"buffer":0,
			"byteLength":2736,
			"byteOffset":654352,
			"target":34963
		},
		{
			"buffer":0,
			"byteLength":24480,
			"byteOffset":657088,
			"target":34962
		},
		{
			"buffer":0,
			"byteLength":24480,
			"byteOffset":681568,
			"target":34962
		},
		{
			"buffer":0,
			"byteLength":16320,
			"byteOffset":706048,
			"target":34962
		},
		{
			"buffer":0,
			"byteLength":6048,
			"byteOffset":722368,
			"target":34963
		},
		{
			"buffer":0,
			"byteLength":5688,
			"byteOffset":728416,
			"target":34962
		},
		{
			"buffer":0,
			"byteLength":5688,
			"byteOffset":734104,
			"target":34962
		},
		{
			"buffer":0,
			"byteLength":3792,
			"byteOffset":739792,
			"target":34962
		},
		{
			"buffer":0,
			"byteLength":1428,
			"byteOffset":743584,
			"target":34963
		},
		{
			"buffer":0,
			"byteLength":1344,
			"byteOffset":745012,
			"target":34962
		},
		{
			"buffer":0,
			"byteLength":1344,
			"byteOffset":746356,
			"target":34962
		},
		{
			"buffer":0,
			"byteLength":896,
			"byteOffset":747700,
			"target":34962
		},
		{
			"buffer":0,
			"byteLength":336,
			"byteOffset":748596,
			"target":34963
		},
		{
			"buffer":0,
			"byteLength":108,
			"byteOffset":748932,
			"target":34962
		},
		{
			"buffer":0,
			"byteLength":108,
			"byteOffset":749040,
			"target":34962
		},
		{
			"buffer":0,
			"byteLength":72,
			"byteOffset":749148,
			"target":34962
		},
		{
			"buffer":0,
			"byteLength":42,
			"byteOffset":749220,
			"target":34963
		},
		{
			"buffer":0,
			"byteLength":108,
			"byteOffset":749264,
			"target":34962
		},
		{
			"buffer":0,
			"byteLength":108,
			"byteOffset":749372,
			"target":34962
		},
		{
			"buffer":0,
			"byteLength":72,
			"byteOffset":749480,
			"target":34962
		},
		{
			"buffer":0,
			"byteLength":42,
			"byteOffset":749552,
			"target":34963
		},
		{
			"buffer":0,
			"byteLength":22496,
			"byteOffset":749596,
			"target":34962
		},
		{
			"buffer":0,
			"byteLength":33744,
			"byteOffset":772092,
			"target":34962
		},
		{
			"buffer":0,
			"byteLength":33744,
			"byteOffset":805836,
			"target":34962
		},
		{
			"buffer":0,
			"byteLength":22496,
			"byteOffset":839580,
			"target":34962
		},
		{
			"buffer":0,
			"byteLength":9072,
			"byteOffset":862076,
			"target":34963
		},
		{
			"buffer":0,
			"byteLength":9312,
			"byteOffset":871148,
			"target":34962
		},
		{
			"buffer":0,
			"byteLength":9312,
			"byteOffset":880460,
			"target":34962
		},
		{
			"buffer":0,
			"byteLength":6208,
			"byteOffset":889772,
			"target":34962
		},
		{
			"buffer":0,
			"byteLength":2328,
			"byteOffset":895980,
			"target":34963
		},
		{
			"buffer":0,
			"byteLength":1344,
			"byteOffset":898308,
			"target":34962
		},
		{
			"buffer":0,
			"byteLength":1344,
			"byteOffset":899652,
			"target":34962
		},
		{
			"buffer":0,
			"byteLength":896,
			"byteOffset":900996,
			"target":34962
		},
		{
			"buffer":0,
			"byteLength":336,
			"byteOffset":901892,
			"target":34963
		},
		{
			"buffer":0,
			"byteLength":124,
			"byteOffset":902228
		},
		{
			"buffer":0,
			"byteLength":372,
			"byteOffset":902352
		},
		{
			"buffer":0,
			"byteLength":496,
			"byteOffset":902724
		}
	],
	"samplers":[
		{
			"magFilter":9729,
			"minFilter":9987
		}
	],
	"buffers":[
		{
			"byteLength":903220,
			"uri":"playerModel.bin"
		}
	]
}
