{
	"asset":{
		"generator":"Khronos glTF Blender I/O v3.6.27",
		"version":"2.0"
	},
	"extensionsUsed":[
		"KHR_materials_transmission",
		"KHR_materials_specular",
		"KHR_materials_ior",
		"KHR_materials_clearcoat"
	],
	"scene":0,
	"scenes":[
		{
			"name":"Scene",
			"nodes":[
				0,
				1,
				2
			]
		}
	],
	"nodes":[
		{
			"mesh":0,
			"name":"Cube"
		},
		{
			"mesh":1,
			"name":"Icosphere",
			"translation":[
				0,
				4.237679481506348,
				0
			]
		},
		{
			"mesh":2,
			"name":"Cylinder",
			"translation":[
				0,
				2.1125545501708984,
				0
			]
		}
	],
	"materials":[
		{
			"doubleSided":true,
			"emissiveFactor":[
				0.0931740403175354,
				0.2522560656070709,
				0.3044453561306
			],
			"extensions":{
				"KHR_materials_transmission":{
					"transmissionFactor":0.05909091234207153
				},
				"KHR_materials_specular":{
					"specularColorTexture":{
						"index":0
					}
				},
				"KHR_materials_ior":{
					"ior":1.4500000476837158
				}
			},
			"name":"Material",
			"normalTexture":{
				"index":1,
				"scale":3.799999713897705
			},
			"pbrMetallicRoughness":{
				"baseColorTexture":{
					"index":2
				},
				"metallicFactor":0.1818181872367859,
				"roughnessFactor":0.4272727370262146
			}
		},
		{
			"doubleSided":true,
			"emissiveFactor":[
				0.07740234146127456,
				0.32076445900457884,
				0.24607425117787685
			],
			"extensions":{
				"KHR_materials_clearcoat":{
					"clearcoatFactor":0.10454545170068741,
					"clearcoatRoughnessFactor":0.24818181991577148
				},
				"KHR_materials_transmission":{
					"transmissionFactor":0.145454540848732
				},
				"KHR_materials_specular":{
					"specularColorTexture":{
						"index":3
					}
				},
				"KHR_materials_ior":{
					"ior":6.84999942779541
				}
			},
			"name":"Material.003",
			"normalTexture":{
				"index":4,
				"scale":10
			},
			"pbrMetallicRoughness":{
				"baseColorTexture":{
					"index":5
				},
				"metallicFactor":0.15000000596046448,
				"roughnessFactor":0.5
			}
		},
		{
			"doubleSided":true,
			"name":"Material.002",
			"pbrMetallicRoughness":{
				"baseColorFactor":[
					0.08212007582187653,
					0.0788361057639122,
					0.46165284514427185,
					1
				],
				"metallicFactor":0,
				"roughnessFactor":0.5
			}
		}
	],
	"meshes":[
		{
			"name":"Cube",
			"primitives":[
				{
					"attributes":{
						"POSITION":0,
						"NORMAL":1,
						"TEXCOORD_0":2
					},
					"indices":3,
					"material":0
				}
			]
		},
		{
			"name":"Icosphere",
			"primitives":[
				{
					"attributes":{
						"POSITION":4,
						"NORMAL":5,
						"TEXCOORD_0":6
					},
					"indices":7,
					"material":1
				}
			]
		},
		{
			"name":"Cylinder",
			"primitives":[
				{
					"attributes":{
						"POSITION":8,
						"NORMAL":9,
						"TEXCOORD_0":10
					},
					"indices":11,
					"material":2
				}
			]
		}
	],
	"textures":[
		{
			"sampler":0,
			"source":0
		},
		{
			"sampler":0,
			"source":1
		},
		{
			"sampler":0,
			"source":1
		},
		{
			"sampler":0,
			"source":2
		},
		{
			"sampler":0,
			"source":3
		},
		{
			"sampler":0,
			"source":3
		}
	],
	"images":[
		{
			"mimeType":"image/png",
			"name":"Image",
			"uri":"Image.png"
		},
		{
			"mimeType":"image/png",
			"name":"5blockedmessages",
			"uri":"5blockedmessages.png"
		},
		{
			"mimeType":"image/png",
			"name":"Image",
			"uri":"Image-1.png"
		},
		{
			"mimeType":"image/jpeg",
			"name":"6nycsj",
			"uri":"6nycsj.jpg"
		}
	],
	"accessors":[
		{
			"bufferView":0,
			"componentType":5126,
			"count":24,
			"max":[
				1,
				1,
				1
			],
			"min":[
				-1,
				-1,
				-1
			],
			"type":"VEC3"
		},
		{
			"bufferView":1,
			"componentType":5126,
			"count":24,
			"type":"VEC3"
		},
		{
			"bufferView":2,
			"componentType":5126,
			"count":24,
			"type":"VEC2"
		},
		{
			"bufferView":3,
			"componentType":5123,
			"count":36,
			"type":"SCALAR"
		},
		{
			"bufferView":4,
			"componentType":5126,
			"count":240,
			"max":[
				0.9510578513145447,
				1,
				0.9999999403953552
			],
			"min":[
				-0.9510578513145447,
				-1,
				-0.9999999403953552
			],
			"type":"VEC3"
		},
		{
			"bufferView":5,
			"componentType":5126,
			"count":240,
			"type":"VEC3"
		},
		{
			"bufferView":6,
			"componentType":5126,
			"count":240,
			"type":"VEC2"
		},
		{
			"bufferView":7,
			"componentType":5123,
			"count":240,
			"type":"SCALAR"
		},
		{
			"bufferView":8,
			"componentType":5126,
			"count":192,
			"max":[
				1,
				1,
				1
			],
			"min":[
				-1,
				-1,
				-1
			],
			"type":"VEC3"
		},
		{
			"bufferView":9,
			"componentType":5126,
			"count":192,
			"type":"VEC3"
		},
		{
			"bufferView":10,
			"componentType":5126,
			"count":192,
			"type":"VEC2"
		},
		{
			"bufferView":11,
			"componentType":5123,
			"count":372,
			"type":"SCALAR"
		}
	],
	"bufferViews":[
		{
			"buffer":0,
			"byteLength":288,
			"byteOffset":0,
			"target":34962
		},
		{
			"buffer":0,
			"byteLength":288,
			"byteOffset":288,
			"target":34962
		},
		{
			"buffer":0,
			"byteLength":192,
			"byteOffset":576,
			"target":34962
		},
		{
			"buffer":0,
			"byteLength":72,
			"byteOffset":768,
			"target":34963
		},
		{
			"buffer":0,
			"byteLength":2880,
			"byteOffset":840,
			"target":34962
		},
		{
			"buffer":0,
			"byteLength":2880,
			"byteOffset":3720,
			"target":34962
		},
		{
			"buffer":0,
			"byteLength":1920,
			"byteOffset":6600,
			"target":34962
		},
		{
			"buffer":0,
			"byteLength":480,
			"byteOffset":8520,
			"target":34963
		},
		{
			"buffer":0,
			"byteLength":2304,
			"byteOffset":9000,
			"target":34962
		},
		{
			"buffer":0,
			"byteLength":2304,
			"byteOffset":11304,
			"target":34962
		},
		{
			"buffer":0,
			"byteLength":1536,
			"byteOffset":13608,
			"target":34962
		},
		{
			"buffer":0,
			"byteLength":744,
			"byteOffset":15144,
			"target":34963
		}
	],
	"samplers":[
		{
			"magFilter":9729,
			"minFilter":9987
		}
	],
	"buffers":[
		{
			"byteLength":15888,
			"uri":"test.bin"
		}
	]
}
