{
	"asset":{
		"generator":"Khronos glTF Blender I/O v3.6.28",
		"version":"2.0"
	},
	"extensionsUsed":[
		"KHR_materials_specular",
		"KHR_materials_ior"
	],
	"scene":0,
	"scenes":[
		{
			"name":"Scene",
			"nodes":[
				0,
				1,
				2,
				3,
				4
			]
		}
	],
	"nodes":[
		{
			"mesh":0,
			"name":"RibbonCurve",
			"rotation":[
				0.0009729076409712434,
				-0.8114920258522034,
				0.5843619704246521,
				0.0009170232224278152
			],
			"scale":[
				1.182439923286438,
				1.1824396848678589,
				1.1824396848678589
			],
			"translation":[
				0,
				5.205443859100342,
				5.614055156707764
			]
		},
		{
			"mesh":1,
			"name":"RibbonMesh",
			"rotation":[
				0.0009729076409712434,
				-0.8114920258522034,
				0.5843619704246521,
				0.0009170232224278152
			],
			"scale":[
				1.182439923286438,
				1.1824396848678589,
				1.1824396848678589
			],
			"translation":[
				0,
				5.205443859100342,
				5.614055156707764
			]
		},
		{
			"mesh":2,
			"name":"Ring",
			"scale":[
				11.682695388793945,
				0.8704757690429688,
				11.682695388793945
			]
		},
		{
			"mesh":3,
			"name":"StarsBack",
			"rotation":[
				0,
				0.3097532093524933,
				0,
				0.9508169889450073
			],
			"translation":[
				0,
				-1.3314459323883057,
				0
			]
		},
		{
			"mesh":4,
			"name":"StarsFront",
			"rotation":[
				0,
				0.3097532093524933,
				0,
				0.9508169889450073
			],
			"translation":[
				0,
				-0.037306830286979675,
				0
			]
		}
	],
	"materials":[
		{
			"doubleSided":true,
			"extensions":{
				"KHR_materials_specular":{
					"specularColorFactor":[
						2.0632677098568126,
						2.0632677098568126,
						2.0632677098568126
					]
				},
				"KHR_materials_ior":{
					"ior":1.4500000476837158
				}
			},
			"name":"Material.003",
			"pbrMetallicRoughness":{
				"baseColorTexture":{
					"index":0
				},
				"metallicFactor":0,
				"roughnessFactor":0.28740155696868896
			}
		},
		{
			"doubleSided":true,
			"extensions":{
				"KHR_materials_specular":{
					"specularColorFactor":[
						0.6815318705200137,
						0.6815318705200137,
						0.6815318705200137
					]
				},
				"KHR_materials_ior":{
					"ior":1.4500000476837158
				}
			},
			"name":"Material.001",
			"pbrMetallicRoughness":{
				"baseColorTexture":{
					"index":1
				},
				"metallicFactor":0.8999999761581421,
				"roughnessFactor":0.712598443031311
			}
		},
		{
			"doubleSided":true,
			"name":"Material.002",
			"pbrMetallicRoughness":{
				"baseColorTexture":{
					"index":2
				},
				"metallicFactor":0.9055117964744568,
				"roughnessFactor":0.5
			}
		}
	],
	"meshes":[
		{
			"name":"BezierCurve",
			"primitives":[
				{
					"attributes":{
						"POSITION":0,
						"NORMAL":1,
						"TEXCOORD_0":2
					},
					"indices":3
				}
			]
		},
		{
			"name":"BezierCurve.001",
			"primitives":[
				{
					"attributes":{
						"POSITION":4,
						"NORMAL":5,
						"TEXCOORD_0":6
					},
					"indices":7,
					"material":0
				}
			]
		},
		{
			"name":"Cylinder",
			"primitives":[
				{
					"attributes":{
						"POSITION":8,
						"NORMAL":9,
						"TEXCOORD_0":10
					},
					"indices":11,
					"material":1
				}
			]
		},
		{
			"name":"Circle.009",
			"primitives":[
				{
					"attributes":{
						"POSITION":12,
						"NORMAL":13,
						"TEXCOORD_0":14
					},
					"indices":15,
					"material":2
				}
			]
		},
		{
			"name":"Circle",
			"primitives":[
				{
					"attributes":{
						"POSITION":16,
						"NORMAL":17,
						"TEXCOORD_0":18
					},
					"indices":15,
					"material":2
				}
			]
		}
	],
	"textures":[
		{
			"sampler":0,
			"source":0
		},
		{
			"sampler":0,
			"source":1
		},
		{
			"sampler":0,
			"source":2
		}
	],
	"images":[
		{
			"mimeType":"image/png",
			"name":"RibbonMesh Base Color",
			"uri":"RibbonMesh%20Base%20Color.png"
		},
		{
			"mimeType":"image/png",
			"name":"Ring Color",
			"uri":"Ring%20Color.png"
		},
		{
			"mimeType":"image/png",
			"name":"Stars Color",
			"uri":"Stars%20Color.png"
		}
	],
	"accessors":[
		{
			"bufferView":0,
			"componentType":5126,
			"count":74,
			"max":[
				-3.718771040439606e-05,
				2.3994038105010986,
				8.894728660583496
			],
			"min":[
				-15.459817886352539,
				-8.618780136108398,
				0.756727933883667
			],
			"type":"VEC3"
		},
		{
			"bufferView":1,
			"componentType":5126,
			"count":74,
			"type":"VEC3"
		},
		{
			"bufferView":2,
			"componentType":5126,
			"count":74,
			"type":"VEC2"
		},
		{
			"bufferView":3,
			"componentType":5123,
			"count":216,
			"type":"SCALAR"
		},
		{
			"bufferView":4,
			"componentType":5126,
			"count":164,
			"max":[
				15.492265701293945,
				2.5587077140808105,
				8.905143737792969
			],
			"min":[
				-15.492265701293945,
				-8.775289535522461,
				0.7418448328971863
			],
			"type":"VEC3"
		},
		{
			"bufferView":5,
			"componentType":5126,
			"count":164,
			"type":"VEC3"
		},
		{
			"bufferView":6,
			"componentType":5126,
			"count":164,
			"type":"VEC2"
		},
		{
			"bufferView":7,
			"componentType":5123,
			"count":444,
			"type":"SCALAR"
		},
		{
			"bufferView":8,
			"componentType":5126,
			"count":1408,
			"max":[
				1,
				1,
				1
			],
			"min":[
				-1,
				-1,
				-1
			],
			"type":"VEC3"
		},
		{
			"bufferView":9,
			"componentType":5126,
			"count":1408,
			"type":"VEC3"
		},
		{
			"bufferView":10,
			"componentType":5126,
			"count":1408,
			"type":"VEC2"
		},
		{
			"bufferView":11,
			"componentType":5123,
			"count":2688,
			"type":"SCALAR"
		},
		{
			"bufferView":12,
			"componentType":5126,
			"count":720,
			"max":[
				10.225805282592773,
				0.8007098436355591,
				10.231215476989746
			],
			"min":[
				-10.219826698303223,
				0.5547218918800354,
				-10.222068786621094
			],
			"type":"VEC3"
		},
		{
			"bufferView":13,
			"componentType":5126,
			"count":720,
			"type":"VEC3"
		},
		{
			"bufferView":14,
			"componentType":5126,
			"count":720,
			"type":"VEC2"
		},
		{
			"bufferView":15,
			"componentType":5123,
			"count":1296,
			"type":"SCALAR"
		},
		{
			"bufferView":16,
			"componentType":5126,
			"count":720,
			"max":[
				10.225805282592773,
				0.8007098436355591,
				10.231215476989746
			],
			"min":[
				-10.219826698303223,
				0.5547218918800354,
				-10.222068786621094
			],
			"type":"VEC3"
		},
		{
			"bufferView":17,
			"componentType":5126,
			"count":720,
			"type":"VEC3"
		},
		{
			"bufferView":18,
			"componentType":5126,
			"count":720,
			"type":"VEC2"
		}
	],
	"bufferViews":[
		{
			"buffer":0,
			"byteLength":888,
			"byteOffset":0,
			"target":34962
		},
		{
			"buffer":0,
			"byteLength":888,
			"byteOffset":888,
			"target":34962
		},
		{
			"buffer":0,
			"byteLength":592,
			"byteOffset":1776,
			"target":34962
		},
		{
			"buffer":0,
			"byteLength":432,
			"byteOffset":2368,
			"target":34963
		},
		{
			"buffer":0,
			"byteLength":1968,
			"byteOffset":2800,
			"target":34962
		},
		{
			"buffer":0,
			"byteLength":1968,
			"byteOffset":4768,
			"target":34962
		},
		{
			"buffer":0,
			"byteLength":1312,
			"byteOffset":6736,
			"target":34962
		},
		{
			"buffer":0,
			"byteLength":888,
			"byteOffset":8048,
			"target":34963
		},
		{
			"buffer":0,
			"byteLength":16896,
			"byteOffset":8936,
			"target":34962
		},
		{
			"buffer":0,
			"byteLength":16896,
			"byteOffset":25832,
			"target":34962
		},
		{
			"buffer":0,
			"byteLength":11264,
			"byteOffset":42728,
			"target":34962
		},
		{
			"buffer":0,
			"byteLength":5376,
			"byteOffset":53992,
			"target":34963
		},
		{
			"buffer":0,
			"byteLength":8640,
			"byteOffset":59368,
			"target":34962
		},
		{
			"buffer":0,
			"byteLength":8640,
			"byteOffset":68008,
			"target":34962
		},
		{
			"buffer":0,
			"byteLength":5760,
			"byteOffset":76648,
			"target":34962
		},
		{
			"buffer":0,
			"byteLength":2592,
			"byteOffset":82408,
			"target":34963
		},
		{
			"buffer":0,
			"byteLength":8640,
			"byteOffset":85000,
			"target":34962
		},
		{
			"buffer":0,
			"byteLength":8640,
			"byteOffset":93640,
			"target":34962
		},
		{
			"buffer":0,
			"byteLength":5760,
			"byteOffset":102280,
			"target":34962
		}
	],
	"samplers":[
		{
			"magFilter":9729,
			"minFilter":9987
		}
	],
	"buffers":[
		{
			"byteLength":108040,
			"uri":"ring.bin"
		}
	]
}
